<?xml version="1.0" encoding="UTF-8" standalone="no"?>
<!DOCTYPE svg PUBLIC "-//W3C//DTD SVG 1.1//EN" "http://www.w3.org/Graphics/SVG/1.1/DTD/svg11.dtd">
<svg width="100%" height="100%" viewBox="0 0 502 152" version="1.1" xmlns="http://www.w3.org/2000/svg" xmlns:xlink="http://www.w3.org/1999/xlink" xml:space="preserve" xmlns:serif="http://www.serif.com/" style="fill-rule:evenodd;clip-rule:evenodd;stroke-linejoin:round;stroke-miterlimit:2;">
    <g id="Artboard1" transform="matrix(1.11308,0,0,1.00305,-686.772,-159.486)">
        <rect x="617" y="159" width="451" height="151.537" style="fill:none;"/>
        <g transform="matrix(0.898406,0,0,0.996956,1172.22,146.09)">
            <g transform="matrix(0.333333,0,0,0.542986,-787.333,-476.571)">
                <rect x="838" y="931" width="9" height="221"/>
            </g>
            <g transform="matrix(1.33432,0,0,1.33934,-1706.68,-1306.77)">
                <g transform="matrix(50,0,0,50,925.4,1061.11)">
                    <path d="M0.017,-0.76L0.346,-0.76C0.429,-0.76 0.494,-0.749 0.542,-0.727C0.563,-0.717 0.58,-0.705 0.594,-0.691C0.627,-0.658 0.643,-0.616 0.643,-0.566C0.643,-0.504 0.616,-0.457 0.563,-0.424C0.522,-0.399 0.467,-0.385 0.396,-0.382L0.396,-0.379C0.44,-0.371 0.473,-0.355 0.496,-0.331C0.517,-0.309 0.555,-0.24 0.611,-0.125L0.614,-0.119C0.628,-0.09 0.645,-0.069 0.664,-0.058C0.683,-0.047 0.706,-0.039 0.735,-0.035L0.735,-0L0.579,-0C0.509,-0.166 0.46,-0.267 0.433,-0.303C0.403,-0.342 0.358,-0.361 0.296,-0.361L0.187,-0.361L0.187,-0.115C0.187,-0.088 0.195,-0.069 0.211,-0.058C0.224,-0.048 0.25,-0.041 0.289,-0.036L0.289,-0L0.017,-0L0.017,-0.036C0.058,-0.041 0.085,-0.048 0.097,-0.058C0.11,-0.068 0.116,-0.087 0.116,-0.115L0.116,-0.645C0.116,-0.675 0.108,-0.696 0.092,-0.706C0.08,-0.714 0.056,-0.72 0.017,-0.724L0.017,-0.76ZM0.187,-0.411L0.308,-0.411C0.475,-0.411 0.559,-0.462 0.559,-0.565C0.559,-0.662 0.487,-0.71 0.343,-0.71L0.265,-0.71C0.235,-0.71 0.214,-0.704 0.204,-0.693C0.193,-0.682 0.187,-0.663 0.187,-0.637L0.187,-0.411Z" style="fill-rule:nonzero;"/>
                </g>
                <g transform="matrix(50,0,0,50,962.9,1061.11)">
                    <path d="M0.135,-0.275L0.135,-0.268C0.135,-0.215 0.146,-0.17 0.167,-0.132C0.201,-0.068 0.255,-0.036 0.327,-0.036C0.407,-0.036 0.474,-0.077 0.527,-0.159L0.559,-0.127C0.502,-0.029 0.423,0.02 0.321,0.02C0.231,0.02 0.161,-0.014 0.112,-0.081C0.076,-0.132 0.057,-0.194 0.057,-0.268C0.057,-0.345 0.078,-0.41 0.119,-0.463C0.168,-0.528 0.234,-0.56 0.315,-0.56C0.372,-0.56 0.422,-0.544 0.464,-0.512C0.512,-0.476 0.543,-0.427 0.557,-0.365C0.562,-0.342 0.565,-0.319 0.565,-0.295L0.565,-0.275L0.135,-0.275ZM0.481,-0.323C0.478,-0.379 0.466,-0.421 0.444,-0.449C0.412,-0.492 0.369,-0.513 0.316,-0.513C0.267,-0.513 0.224,-0.492 0.189,-0.449C0.161,-0.415 0.144,-0.373 0.137,-0.323L0.481,-0.323Z" style="fill-rule:nonzero;"/>
                </g>
                <g transform="matrix(50,0,0,50,994.394,1061.11)">
                    <path d="M0.431,-0.351L0.431,-0.366C0.431,-0.414 0.421,-0.449 0.4,-0.471C0.389,-0.482 0.374,-0.492 0.354,-0.5C0.331,-0.509 0.307,-0.513 0.283,-0.513C0.243,-0.513 0.21,-0.507 0.185,-0.494C0.172,-0.488 0.163,-0.481 0.159,-0.473C0.178,-0.466 0.187,-0.45 0.187,-0.425C0.187,-0.413 0.184,-0.402 0.177,-0.393C0.167,-0.379 0.153,-0.372 0.134,-0.372C0.119,-0.372 0.106,-0.378 0.096,-0.389C0.085,-0.402 0.08,-0.417 0.08,-0.437C0.08,-0.468 0.099,-0.496 0.136,-0.52C0.177,-0.547 0.227,-0.56 0.286,-0.56C0.343,-0.56 0.391,-0.548 0.43,-0.522C0.477,-0.492 0.5,-0.433 0.5,-0.345L0.5,-0.12C0.5,-0.074 0.51,-0.051 0.531,-0.051C0.55,-0.051 0.567,-0.068 0.583,-0.101L0.612,-0.064C0.589,-0.009 0.557,0.018 0.517,0.018C0.465,0.018 0.436,-0.017 0.432,-0.087C0.391,-0.017 0.321,0.018 0.221,0.018C0.164,0.018 0.12,-0.002 0.087,-0.043C0.065,-0.071 0.054,-0.105 0.054,-0.144C0.054,-0.206 0.085,-0.255 0.147,-0.29C0.208,-0.325 0.288,-0.344 0.389,-0.349L0.431,-0.351ZM0.431,-0.301L0.394,-0.299C0.309,-0.294 0.243,-0.279 0.197,-0.254C0.153,-0.23 0.131,-0.194 0.131,-0.148C0.131,-0.118 0.139,-0.094 0.156,-0.076C0.175,-0.055 0.203,-0.044 0.24,-0.044C0.277,-0.044 0.312,-0.053 0.346,-0.07C0.382,-0.089 0.407,-0.112 0.421,-0.14C0.428,-0.153 0.431,-0.166 0.431,-0.178L0.431,-0.301Z" style="fill-rule:nonzero;"/>
                </g>
                <g transform="matrix(50,0,0,50,1025.4,1061.11)">
                    <path d="M0.545,-0.133C0.493,-0.031 0.415,0.02 0.311,0.02C0.254,0.02 0.204,0.005 0.161,-0.025C0.084,-0.078 0.046,-0.16 0.046,-0.271C0.046,-0.345 0.064,-0.406 0.101,-0.456C0.134,-0.501 0.179,-0.532 0.234,-0.548C0.261,-0.556 0.289,-0.56 0.318,-0.56C0.377,-0.56 0.426,-0.545 0.464,-0.515C0.498,-0.488 0.515,-0.459 0.515,-0.428C0.515,-0.417 0.513,-0.406 0.508,-0.396C0.499,-0.375 0.482,-0.365 0.459,-0.365C0.44,-0.365 0.425,-0.373 0.415,-0.387C0.409,-0.396 0.406,-0.406 0.406,-0.417C0.406,-0.441 0.414,-0.457 0.43,-0.465C0.409,-0.496 0.372,-0.512 0.319,-0.512C0.26,-0.512 0.211,-0.487 0.174,-0.438C0.142,-0.394 0.126,-0.338 0.126,-0.271C0.126,-0.222 0.135,-0.179 0.153,-0.143C0.169,-0.109 0.192,-0.083 0.221,-0.064C0.25,-0.045 0.282,-0.036 0.318,-0.036C0.398,-0.036 0.463,-0.079 0.514,-0.165L0.545,-0.133Z" style="fill-rule:nonzero;"/>
                </g>
                <g transform="matrix(50,0,0,50,1054.4,1061.11)">
                    <path d="M0.007,-0.492L0.007,-0.539C0.06,-0.549 0.098,-0.571 0.123,-0.605C0.14,-0.631 0.152,-0.665 0.157,-0.709L0.193,-0.709L0.193,-0.54L0.375,-0.54L0.375,-0.492L0.193,-0.492L0.193,-0.157C0.193,-0.118 0.198,-0.09 0.208,-0.073C0.219,-0.054 0.239,-0.044 0.268,-0.044C0.311,-0.044 0.347,-0.065 0.375,-0.106L0.397,-0.068C0.359,-0.011 0.31,0.017 0.248,0.017C0.199,0.017 0.163,-0.003 0.142,-0.044C0.129,-0.07 0.122,-0.106 0.122,-0.15L0.122,-0.492L0.007,-0.492Z" style="fill-rule:nonzero;"/>
                </g>
                <g transform="matrix(50,0,0,50,1075.4,1061.11)">
                    <path d="M0.371,0.006L0.156,0.006L0.156,0.073L0.096,0.073L0.096,-0.322C0.117,-0.315 0.14,-0.306 0.167,-0.295L0.234,-0.295L0.234,-0.483L0.051,-0.483L0.035,-0.53L0.234,-0.53L0.234,-0.689C0.176,-0.674 0.121,-0.663 0.071,-0.656L0.052,-0.693C0.18,-0.716 0.288,-0.756 0.377,-0.813C0.422,-0.783 0.445,-0.761 0.445,-0.747C0.445,-0.74 0.438,-0.736 0.424,-0.736C0.415,-0.736 0.404,-0.737 0.391,-0.741C0.359,-0.728 0.327,-0.716 0.294,-0.706L0.294,-0.53L0.382,-0.53L0.43,-0.589C0.457,-0.566 0.479,-0.541 0.497,-0.514L0.479,-0.483L0.294,-0.483L0.294,-0.295L0.365,-0.295L0.397,-0.333C0.441,-0.3 0.463,-0.278 0.463,-0.264C0.463,-0.259 0.46,-0.255 0.454,-0.251L0.431,-0.237L0.431,0.058L0.371,0.058L0.371,0.006ZM0.371,-0.041L0.371,-0.249L0.156,-0.249L0.156,-0.041L0.371,-0.041ZM0.666,-0.366L0.444,-0.366L0.43,-0.413L0.726,-0.413C0.754,-0.471 0.778,-0.541 0.796,-0.624C0.858,-0.604 0.89,-0.587 0.89,-0.572C0.89,-0.563 0.876,-0.556 0.848,-0.552C0.829,-0.506 0.804,-0.46 0.773,-0.413L0.856,-0.413L0.904,-0.47C0.931,-0.446 0.954,-0.422 0.971,-0.398L0.954,-0.366L0.728,-0.366L0.728,-0.211L0.838,-0.211L0.886,-0.269C0.912,-0.245 0.935,-0.22 0.954,-0.194L0.938,-0.164L0.728,-0.164L0.728,0.086L0.666,0.086L0.666,-0.164L0.471,-0.164L0.457,-0.211L0.666,-0.211L0.666,-0.366ZM0.667,-0.678L0.667,-0.832C0.736,-0.829 0.771,-0.82 0.771,-0.805C0.771,-0.796 0.756,-0.786 0.727,-0.776L0.727,-0.678L0.83,-0.678L0.875,-0.734C0.9,-0.713 0.924,-0.688 0.945,-0.659L0.928,-0.63L0.472,-0.63L0.458,-0.678L0.667,-0.678ZM0.541,-0.618C0.611,-0.556 0.646,-0.505 0.646,-0.466C0.646,-0.447 0.636,-0.433 0.618,-0.425C0.61,-0.422 0.603,-0.42 0.596,-0.42C0.583,-0.42 0.576,-0.429 0.575,-0.447C0.572,-0.501 0.552,-0.55 0.514,-0.594L0.541,-0.618Z" style="fill-rule:nonzero;"/>
                </g>
                <g transform="matrix(50,0,0,50,1125.4,1061.11)">
                    <path d="M0.52,-0.496L0.52,-0.438L0.775,-0.438L0.821,-0.483C0.845,-0.464 0.869,-0.442 0.892,-0.419L0.877,-0.39L0.52,-0.39L0.52,-0.331L0.839,-0.331L0.888,-0.377C0.914,-0.359 0.939,-0.337 0.964,-0.312L0.95,-0.283L0.052,-0.283L0.039,-0.331L0.46,-0.331L0.46,-0.39L0.124,-0.39L0.11,-0.438L0.46,-0.438L0.46,-0.496L0.172,-0.496L0.16,-0.544L0.46,-0.544L0.46,-0.609L0.05,-0.609L0.039,-0.656L0.46,-0.656L0.46,-0.715L0.181,-0.715L0.168,-0.762L0.46,-0.762L0.46,-0.846C0.528,-0.846 0.562,-0.837 0.562,-0.822C0.562,-0.813 0.548,-0.804 0.52,-0.794L0.52,-0.762L0.732,-0.762L0.765,-0.798C0.808,-0.765 0.83,-0.743 0.83,-0.732C0.83,-0.729 0.828,-0.726 0.824,-0.723L0.799,-0.708L0.799,-0.656L0.858,-0.656L0.899,-0.708C0.921,-0.684 0.942,-0.661 0.961,-0.638L0.947,-0.609L0.799,-0.609L0.799,-0.496L0.52,-0.496ZM0.52,-0.544L0.739,-0.544L0.739,-0.609L0.52,-0.609L0.52,-0.544ZM0.52,-0.656L0.739,-0.656L0.739,-0.715L0.52,-0.715L0.52,-0.656ZM0.234,0.045L0.234,0.086L0.175,0.086L0.175,-0.25C0.181,-0.248 0.189,-0.245 0.201,-0.242C0.206,-0.24 0.22,-0.235 0.242,-0.227L0.75,-0.227L0.783,-0.258C0.828,-0.226 0.851,-0.204 0.851,-0.194C0.851,-0.189 0.847,-0.184 0.84,-0.18L0.817,-0.167L0.817,0.086L0.757,0.086L0.757,0.045L0.234,0.045ZM0.234,-0.117L0.757,-0.117L0.757,-0.179L0.234,-0.179L0.234,-0.117ZM0.234,-0.07L0.234,-0.002L0.757,-0.002L0.757,-0.07L0.234,-0.07Z" style="fill-rule:nonzero;"/>
                </g>
            </g>
            <g transform="matrix(2.39135,0,0,2.40033,-606.008,50.5437)">
                <path d="M25.778,7.111L8.764,7.111C7.852,7.098 7.108,6.344 7.108,5.431C7.108,5.399 7.109,5.366 7.111,5.333C7.109,4.403 7.837,3.621 8.764,3.556L25.778,3.556C26.265,3.556 26.667,3.154 26.667,2.667C26.667,2.179 26.265,1.778 25.778,1.778L8.764,1.778C6.861,1.844 5.332,3.429 5.333,5.333C5.325,5.478 5.325,5.624 5.333,5.769C5.325,5.84 5.325,5.911 5.333,5.982L5.333,26.667C5.332,28.571 6.861,30.156 8.764,30.222L25.778,30.222C26.265,30.222 26.667,29.821 26.667,29.333L26.667,8.062C26.668,7.563 26.276,7.144 25.778,7.111ZM24.889,28.444L8.764,28.444C7.837,28.379 7.109,27.597 7.111,26.667L7.111,8.489C7.616,8.768 8.188,8.906 8.764,8.889L24.889,8.889L24.889,28.444Z" style="fill-rule:nonzero;"/>
            </g>
        </g>
    </g>
</svg>
